<?xml version="1.0" encoding="utf-8"?>
<!-- Generator: Adobe Illustrator 23.0.3, SVG Export Plug-In . SVG Version: 6.00 Build 0)  -->
<svg version="1.1" id="Layer_1" xmlns="http://www.w3.org/2000/svg" xmlns:xlink="http://www.w3.org/1999/xlink" x="0px" y="0px"
	 viewBox="0 0 370 60" style="enable-background:new 0 0 370 60;" xml:space="preserve">
<style type="text/css">
	.st0{fill:#ED4849;}
	.st1{opacity:0.1;}
	.st2{fill:#231F20;}
</style>
<g>
	<g>
		<path class="st0" d="M29.03,40.07l6.26,17.63c-1.23,0.17-2.49,0.26-3.76,0.26c-1.39,0-2.76-0.1-4.09-0.31V24.39h7.26V36.6h-5.66
			V40.07z"/>
		<path class="st0" d="M59.37,8.83v21.3c0,12.06-7.78,22.39-18.57,26.23l-5.76-15.84c1.9,0,3.15-0.13,3.74-0.37
			c1.1-0.47,1.65-1.53,1.65-3.15v-14c0-2.36-1.16-3.54-3.47-3.54H21.67v36.69c-10.48-4-17.98-14.18-17.98-26.02V8.83
			c0-3.6,2.94-6.54,6.54-6.54h42.59C56.42,2.28,59.37,5.23,59.37,8.83z"/>
	</g>
	<g class="st1">
		<path d="M36.96,19.56H21.67v36.69c-10.48-4-17.98-14.18-17.98-26.02V8.93c0-3.6,2.94-6.54,6.54-6.54
			C10.23,2.39,39.27,19.56,36.96,19.56z"/>
	</g>
</g>
<g>
	<g>
		<path class="st2" d="M91.88,33.33c-0.23,0-0.68,0-1.13-0.04c-4.8-0.23-6.19-1.25-7.33-2.83c-1.51-2.08-2.61-4.38-3.89-6.65
			c-0.57-1.02-1.09-1.25-2.3-1.25l-0.76-0.04v5.51c0,3.06,0.38,3.32,3.21,3.66v1.4H68.12v-1.4c2.87-0.3,3.21-0.6,3.21-3.66V13.57
			c0-2.98-0.38-3.4-3.21-3.63v-1.4h10.95c3.36,0,5.29,0.38,6.84,1.44c1.51,1.02,2.53,2.68,2.53,5.02c0,3.36-2.23,5.14-4.72,6.12
			c0.57,1.13,2.04,3.59,3.17,5.33c1.32,2.08,2.15,3.1,2.87,3.93c0.87,0.98,1.28,1.28,2.38,1.66L91.88,33.33z M77.49,20.97
			c1.62,0,2.87-0.26,3.7-0.98c1.25-1.06,1.77-2.49,1.77-4.42c0-4-2.3-5.44-4.42-5.44c-1.02,0-1.51,0.15-1.74,0.38
			c-0.26,0.23-0.34,0.68-0.34,1.43v9.03H77.49z"/>
		<path class="st2" d="M105.07,8.55c4.83,0,8.39,1.02,10.8,3.29c1.93,1.78,3.4,4.42,3.4,8.23c0,4.34-1.81,7.67-4.72,9.86
			c-2.8,2.12-6.38,3.17-10.69,3.17H93.47v-1.4c2.87-0.23,3.21-0.57,3.21-3.7V13.65c0-3.17-0.42-3.48-3.21-3.7v-1.4H105.07z
			 M101.93,27.74c0,2.68,0.68,3.59,3.44,3.59c5.1,0,8.05-3.55,8.05-10.69c0-3.59-0.98-6.72-2.72-8.35
			c-1.59-1.59-3.55-2.12-6.08-2.12c-1.4,0-2.04,0.3-2.27,0.53c-0.34,0.34-0.42,0.98-0.42,2.08V27.74z"/>
		<path class="st2" d="M148.88,9.94c-2.3,0.3-3.02,0.79-3.14,2.49c-0.11,1.47-0.23,2.76-0.23,6.04v15.03h-2.11l-15.75-18.89v8.54
			c0,3.29,0.08,4.76,0.19,5.85c0.15,1.66,0.94,2.53,3.74,2.68v1.4h-9.37v-1.4c2.15-0.19,3.1-0.76,3.32-2.53
			c0.15-1.36,0.23-2.72,0.23-6.01v-8.95c0-1.25-0.08-2.08-0.79-3.06c-0.68-0.94-1.59-1.06-3.17-1.21v-1.4h7.37l14.39,16.73v-6.8
			c0-3.29-0.04-4.53-0.15-5.93c-0.11-1.62-0.72-2.42-3.85-2.61v-1.4h9.33V9.94z"/>
		<path class="st2" d="M171.96,26.68c-0.19,1.02-1.25,5.36-1.59,6.42h-19.6v-1.36c3.44-0.34,3.66-0.53,3.66-3.7V13.61
			c0-3.21-0.45-3.44-3.02-3.66v-1.4h12.28c3.97,0,5.29-0.04,5.82-0.08c0.04,0.68,0.23,3.78,0.38,6.12l-1.47,0.19
			c-0.34-1.28-0.98-2.83-1.62-3.51c-0.68-0.75-1.17-0.98-3.1-0.98h-2.46c-1.43,0-1.59,0.08-1.59,1.36v7.89h3.7
			c2.12,0,2.49-0.57,3.06-3.25h1.47v8.42h-1.47c-0.6-2.8-0.91-3.25-3.1-3.25h-3.66v6.5c0,2.61,0.08,3.4,2.42,3.44h2.68
			c2.12,0,2.68-0.26,3.51-1.28c0.94-1.09,1.7-2.49,2.3-3.78L171.96,26.68z"/>
		<path class="st2" d="M194.55,15.08c-0.42-1.74-1.25-3.17-1.62-3.7c-0.68-0.79-0.98-1.1-3.21-1.1h-2.42v17.75
			c0,3.17,0.38,3.4,3.74,3.66v1.4H178.5v-1.4c3.21-0.26,3.55-0.49,3.55-3.66V10.28h-2.3c-2.12,0-2.72,0.34-3.44,1.25
			c-0.53,0.72-1.06,2.08-1.55,3.59h-1.44c0.26-2.76,0.53-5.7,0.6-7.52h1.13c0.57,0.87,1.02,0.94,2.15,0.94h15.11
			c1.02,0,1.55-0.23,2.19-0.94h1.09c0.04,1.59,0.19,4.91,0.38,7.37L194.55,15.08z"/>
		<path class="st2" d="M235.04,9.94c-2.72,0.34-3.21,0.91-4.27,4c-0.98,2.91-3.82,11.86-6.19,19.57h-2.12
			c-1.93-5.44-4.08-11.03-6.23-16.7c-1.96,5.7-3.85,11.22-5.63,16.7h-2.19c-1.51-5.33-3.93-13.14-6.04-19.83
			c-0.94-2.87-1.51-3.51-3.82-3.74v-1.4h11.41v1.4c-2.83,0.26-2.91,0.83-2.38,2.8c1.25,4.34,2.57,8.76,3.82,12.88
			c1.93-5.33,3.74-11.03,5.48-16.88h2c2.08,5.78,4.23,11.41,6.31,16.92c1.4-4.08,3.21-10.39,3.74-12.54
			c0.53-2.23,0.15-2.91-3.1-3.17v-1.4h9.22V9.94z"/>
		<path class="st2" d="M249.13,8.02c6.99,0,12.69,5.1,12.69,12.54c0,8.05-5.74,13.11-12.88,13.11c-7.55,0-13.03-5.51-13.03-12.8
			C235.91,14.4,240.52,8.02,249.13,8.02z M248.57,9.68c-3.85,0-6.69,3.78-6.69,10.46c0,6.38,2.53,11.86,7.63,11.86
			c3.59,0,6.38-3.48,6.38-10.39C255.89,14.14,252.95,9.68,248.57,9.68z"/>
		<path class="st2" d="M288.87,33.33c-0.23,0-0.68,0-1.13-0.04c-4.8-0.23-6.19-1.25-7.33-2.83c-1.51-2.08-2.61-4.38-3.89-6.65
			c-0.57-1.02-1.09-1.25-2.3-1.25l-0.76-0.04v5.51c0,3.06,0.38,3.32,3.21,3.66v1.4h-11.56v-1.4c2.87-0.3,3.21-0.6,3.21-3.66V13.57
			c0-2.98-0.38-3.4-3.21-3.63v-1.4h10.95c3.36,0,5.29,0.38,6.84,1.44c1.51,1.02,2.53,2.68,2.53,5.02c0,3.36-2.23,5.14-4.72,6.12
			c0.57,1.13,2.04,3.59,3.17,5.33c1.32,2.08,2.15,3.1,2.87,3.93c0.87,0.98,1.28,1.28,2.38,1.66L288.87,33.33z M274.48,20.97
			c1.62,0,2.87-0.26,3.7-0.98c1.25-1.06,1.77-2.49,1.77-4.42c0-4-2.3-5.44-4.42-5.44c-1.02,0-1.51,0.15-1.74,0.38
			c-0.26,0.23-0.34,0.68-0.34,1.43v9.03H274.48z"/>
		<path class="st2" d="M290.46,8.55h11.45v1.4c-2.72,0.34-3.14,0.53-3.14,3.7v6.35c0.79-0.23,1.7-0.83,2.95-2
			c2.57-2.53,4.23-4.57,5.36-6.01c0.91-1.17,0.68-1.74-1.06-1.96l-0.72-0.08v-1.4h9.9v1.4c-2.61,0.34-4,0.53-6.38,3.1
			c-1.47,1.55-3.32,3.44-4.99,5.25c2.38,3.32,5.33,7.37,8.23,11.03c1.4,1.81,1.89,2.08,3.82,2.38v1.4h-7.52
			c-1.59-2.15-4.91-6.72-7.59-10.54c-0.79-1.13-1.4-1.36-2-1.25V28c0,3.21,0.26,3.32,3.17,3.7v1.4h-11.48v-1.4
			c2.83-0.3,3.21-0.49,3.21-3.7V13.65c0-3.17-0.38-3.44-3.21-3.7V8.55z"/>
		<path class="st2" d="M331.86,19.58c3.97,0.72,6.76,2.61,6.76,6.19c0,2.34-1.47,4.53-3.63,5.74c-1.93,1.06-4.38,1.59-7.18,1.59
			h-10.58v-1.4c2.91-0.3,3.21-0.49,3.21-3.66V13.65c0-3.17-0.49-3.51-3.17-3.7v-1.4h11.48c2.87,0,4.68,0.38,6.19,1.32
			c1.4,0.91,2.3,2.34,2.3,4.19C337.26,17.2,334.31,19.09,331.86,19.58z M327.06,19.09c3.59,0,4.91-1.55,4.91-4.34
			c0-3.29-2.15-4.53-4.23-4.53c-0.91,0-1.47,0.11-1.77,0.3c-0.42,0.26-0.38,0.6-0.38,1.4v7.18H327.06z M325.59,27.96
			c0,2.72,1.25,3.55,3.29,3.51c2.08-0.04,4.12-1.85,4.12-5.36c0-3.66-1.85-5.4-6.08-5.4h-1.32V27.96z"/>
		<path class="st2" d="M353.05,8.55c4.83,0,8.39,1.02,10.8,3.29c1.93,1.78,3.4,4.42,3.4,8.23c0,4.34-1.81,7.67-4.72,9.86
			c-2.79,2.12-6.38,3.17-10.69,3.17h-10.39v-1.4c2.87-0.23,3.21-0.57,3.21-3.7V13.65c0-3.17-0.42-3.48-3.21-3.7v-1.4H353.05z
			 M349.91,27.74c0,2.68,0.68,3.59,3.44,3.59c5.1,0,8.05-3.55,8.05-10.69c0-3.59-0.98-6.72-2.72-8.35
			c-1.59-1.59-3.55-2.12-6.08-2.12c-1.4,0-2.04,0.3-2.27,0.53c-0.34,0.34-0.42,0.98-0.42,2.08V27.74z"/>
	</g>
	<g>
		<path d="M70.8,52.47l-2.68-10.16h0.73l1.48,5.73c0.34,1.31,0.65,2.53,0.84,3.48h0.04c0.17-0.95,0.53-2.16,0.93-3.49l1.67-5.72
			h0.69l1.51,5.68c0.32,1.24,0.66,2.5,0.82,3.54h0.03c0.23-1.1,0.55-2.2,0.93-3.5l1.67-5.72h0.74l-3.04,10.16h-0.69l-1.53-5.85
			c-0.4-1.49-0.64-2.49-0.78-3.44h-0.03c-0.17,0.94-0.45,1.94-0.91,3.44l-1.73,5.85H70.8z"/>
		<path d="M86.26,47.43H82.2v4.44h4.54v0.61h-5.26V42.32h5.02v0.61h-4.3v3.9h4.06V47.43z"/>
		<path d="M91.8,42.32h0.72v9.55h4.53v0.6H91.8V42.32z"/>
		<path d="M106.28,47.29c0,3.58-2.19,5.35-4.55,5.35c-2.5,0-4.43-1.97-4.43-5.14c0-3.33,2.02-5.35,4.56-5.35
			C104.42,42.15,106.28,44.15,106.28,47.29z M98.05,47.47c0,2.29,1.33,4.57,3.73,4.57c2.41,0,3.76-2.19,3.76-4.7
			c0-2.14-1.17-4.59-3.73-4.59C99.24,42.75,98.05,45.1,98.05,47.47z"/>
		<path d="M110.34,52.47l-3.37-10.16h0.75l1.79,5.44c0.49,1.47,0.9,2.76,1.19,3.89h0.04c0.3-1.14,0.77-2.47,1.3-3.89l1.98-5.45h0.76
			l-3.76,10.16H110.34z"/>
		<path d="M120.64,47.43h-4.06v4.44h4.54v0.61h-5.26V42.32h5.02v0.61h-4.3v3.9h4.06V47.43z"/>
		<path d="M127.47,42.92h-3.31v-0.6h7.34v0.6h-3.31v9.56h-0.72V42.92z"/>
		<path d="M140.47,47.29c0,3.58-2.19,5.35-4.55,5.35c-2.5,0-4.43-1.97-4.43-5.14c0-3.33,2.02-5.35,4.56-5.35
			C138.61,42.15,140.47,44.15,140.47,47.29z M132.24,47.47c0,2.29,1.33,4.57,3.73,4.57c2.41,0,3.76-2.19,3.76-4.7
			c0-2.14-1.17-4.59-3.73-4.59C133.43,42.75,132.24,45.1,132.24,47.47z"/>
		<path d="M146.71,52.47l-2.68-10.16h0.73l1.48,5.73c0.34,1.31,0.65,2.53,0.84,3.48h0.04c0.17-0.95,0.53-2.16,0.93-3.49l1.67-5.72
			h0.69l1.51,5.68c0.32,1.24,0.66,2.5,0.82,3.54h0.03c0.23-1.1,0.55-2.2,0.93-3.5l1.67-5.72h0.74l-3.04,10.16h-0.69l-1.53-5.85
			c-0.4-1.49-0.64-2.49-0.78-3.44h-0.03c-0.17,0.94-0.45,1.94-0.91,3.44l-1.73,5.85H146.71z"/>
		<path d="M165.78,47.29c0,3.58-2.19,5.35-4.55,5.35c-2.5,0-4.43-1.97-4.43-5.14c0-3.33,2.02-5.35,4.56-5.35
			C163.92,42.15,165.78,44.15,165.78,47.29z M157.55,47.47c0,2.29,1.33,4.57,3.73,4.57c2.41,0,3.76-2.19,3.76-4.7
			c0-2.14-1.17-4.59-3.73-4.59C158.74,42.75,157.55,45.1,157.55,47.47z"/>
		<path d="M167.57,42.46c0.62-0.14,1.49-0.22,2.2-0.22c1.32,0,2.16,0.29,2.73,0.85c0.44,0.42,0.71,1.1,0.71,1.81
			c0,1.36-0.81,2.25-1.99,2.64v0.03c0.82,0.26,1.33,1.03,1.57,2.16c0.35,1.59,0.55,2.34,0.76,2.74h-0.75
			c-0.16-0.29-0.38-1.19-0.65-2.47c-0.31-1.47-0.94-2.13-2.28-2.19h-1.59v4.66h-0.72V42.46z M168.29,47.24h1.61
			c1.57,0,2.58-0.88,2.58-2.22c0-1.56-1.15-2.19-2.73-2.19c-0.69,0-1.2,0.07-1.46,0.14V47.24z"/>
		<path d="M175.18,42.32h0.72v5.15h0.05c0.29-0.4,0.6-0.75,0.87-1.06l3.6-4.08h0.89l-3.87,4.31l4.23,5.84h-0.87l-3.85-5.35
			l-1.04,1.15v4.21h-0.72V42.32z"/>
		<path d="M185.98,42.32H191v0.61h-4.3v4.03h3.95v0.61h-3.95v4.91h-0.72V42.32z"/>
		<path d="M201.25,47.29c0,3.58-2.19,5.35-4.55,5.35c-2.5,0-4.43-1.97-4.43-5.14c0-3.33,2.02-5.35,4.56-5.35
			C199.39,42.15,201.25,44.15,201.25,47.29z M193.02,47.47c0,2.29,1.33,4.57,3.73,4.57c2.41,0,3.76-2.19,3.76-4.7
			c0-2.14-1.17-4.59-3.73-4.59C194.21,42.75,193.02,45.1,193.02,47.47z"/>
		<path d="M203.04,42.46c0.62-0.14,1.49-0.22,2.2-0.22c1.32,0,2.15,0.29,2.73,0.85c0.44,0.42,0.71,1.1,0.71,1.81
			c0,1.36-0.81,2.25-1.99,2.64v0.03c0.82,0.26,1.33,1.03,1.57,2.16c0.35,1.59,0.55,2.34,0.76,2.74h-0.75
			c-0.16-0.29-0.38-1.19-0.65-2.47c-0.31-1.47-0.94-2.13-2.28-2.19h-1.59v4.66h-0.72V42.46z M203.76,47.24h1.61
			c1.57,0,2.59-0.88,2.59-2.22c0-1.56-1.15-2.19-2.74-2.19c-0.69,0-1.2,0.07-1.46,0.14V47.24z"/>
		<path d="M215.43,52.47v-4.39l-3.23-5.76H213l1.67,3.03c0.43,0.8,0.8,1.45,1.15,2.19h0.03c0.31-0.69,0.72-1.4,1.18-2.2l1.74-3.02
			h0.81l-3.43,5.78v4.38H215.43z"/>
		<path d="M228.65,47.29c0,3.58-2.19,5.35-4.55,5.35c-2.5,0-4.43-1.97-4.43-5.14c0-3.33,2.02-5.35,4.56-5.35
			C226.79,42.15,228.65,44.15,228.65,47.29z M220.42,47.47c0,2.29,1.33,4.57,3.73,4.57c2.41,0,3.76-2.19,3.76-4.7
			c0-2.14-1.17-4.59-3.73-4.59C221.61,42.75,220.42,45.1,220.42,47.47z"/>
		<path d="M231.16,42.32v6.13c0,2.58,1.21,3.58,2.71,3.58c1.67,0,2.84-1.08,2.84-3.58v-6.13h0.72v6.07c0,3.12-1.68,4.26-3.6,4.26
			c-1.77,0-3.38-1.04-3.38-4.15v-6.17H231.16z"/>
		<path d="M239.87,42.46c0.62-0.14,1.49-0.22,2.2-0.22c1.32,0,2.15,0.29,2.73,0.85c0.44,0.42,0.71,1.1,0.71,1.81
			c0,1.36-0.81,2.25-1.99,2.64v0.03c0.82,0.26,1.33,1.03,1.57,2.16c0.35,1.59,0.55,2.34,0.76,2.74h-0.75
			c-0.16-0.29-0.38-1.19-0.65-2.47c-0.31-1.47-0.94-2.13-2.28-2.19h-1.59v4.66h-0.72V42.46z M240.59,47.24h1.61
			c1.57,0,2.59-0.88,2.59-2.22c0-1.56-1.15-2.19-2.74-2.19c-0.69,0-1.2,0.07-1.46,0.14V47.24z"/>
		<path d="M250.78,42.46c0.57-0.13,1.28-0.22,2.05-0.22c1.27,0,2.09,0.28,2.66,0.84c0.41,0.41,0.63,0.96,0.63,1.67
			c0,1.04-0.73,1.91-1.75,2.26v0.04c0.85,0.19,2.14,0.93,2.14,2.59c0,0.83-0.29,1.46-0.75,1.94c-0.67,0.69-1.76,0.97-3.21,0.97
			c-0.77,0-1.37-0.06-1.76-0.09V42.46z M251.49,46.79h1.48c1.47,0,2.39-0.87,2.39-2c0-1.43-1.08-1.95-2.59-1.95
			c-0.67,0-1.06,0.05-1.29,0.11V46.79z M251.49,51.87c0.3,0.06,0.72,0.08,1.24,0.08c1.56,0,3.02-0.56,3.02-2.29
			c0-1.6-1.37-2.29-2.98-2.3h-1.28V51.87z"/>
		<path d="M259.12,42.32v6.13c0,2.58,1.21,3.58,2.71,3.58c1.67,0,2.84-1.08,2.84-3.58v-6.13h0.72v6.07c0,3.12-1.68,4.26-3.6,4.26
			c-1.77,0-3.38-1.04-3.38-4.15v-6.17H259.12z"/>
		<path d="M267.51,51.35c0.57,0.39,1.37,0.67,2.22,0.67c1.52,0,2.45-0.86,2.45-2.11c0-1.14-0.59-1.81-2.06-2.37
			c-1.64-0.58-2.62-1.42-2.62-2.8c0-1.49,1.23-2.57,2.95-2.57c0.95,0,1.68,0.24,2.02,0.48l-0.28,0.6c-0.27-0.19-0.92-0.48-1.79-0.48
			c-1.64,0-2.2,1.05-2.2,1.85c0,1.13,0.65,1.7,2.11,2.27c1.68,0.68,2.57,1.44,2.57,2.96c0,1.47-1.05,2.79-3.22,2.79
			c-0.88,0-1.9-0.29-2.43-0.68L267.51,51.35z"/>
		<path d="M275.53,42.32v10.16h-0.72V42.32H275.53z"/>
		<path d="M278,52.47V42.32h0.68l3.96,6c0.82,1.27,1.41,2.21,1.91,3.2l0.03-0.02c-0.1-1.36-0.12-2.52-0.12-4.12v-5.06h0.7v10.16
			h-0.67l-3.88-5.91c-0.76-1.16-1.45-2.23-1.97-3.29l-0.04,0.02c0.08,1.25,0.09,2.34,0.09,4.04v5.14H278z"/>
		<path d="M292.38,47.43h-4.06v4.44h4.54v0.61h-5.26V42.32h5.02v0.61h-4.3v3.9h4.06V47.43z"/>
		<path d="M294.31,51.35c0.57,0.39,1.37,0.67,2.22,0.67c1.52,0,2.45-0.86,2.45-2.11c0-1.14-0.59-1.81-2.06-2.37
			c-1.64-0.58-2.62-1.42-2.62-2.8c0-1.49,1.23-2.57,2.95-2.57c0.95,0,1.68,0.24,2.02,0.48l-0.28,0.6c-0.27-0.19-0.92-0.48-1.79-0.48
			c-1.64,0-2.2,1.05-2.2,1.85c0,1.13,0.65,1.7,2.11,2.27c1.68,0.68,2.57,1.44,2.57,2.96c0,1.47-1.05,2.79-3.22,2.79
			c-0.88,0-1.9-0.29-2.43-0.68L294.31,51.35z"/>
		<path d="M301.3,51.35c0.57,0.39,1.37,0.67,2.22,0.67c1.52,0,2.45-0.86,2.45-2.11c0-1.14-0.59-1.81-2.06-2.37
			c-1.64-0.58-2.62-1.42-2.62-2.8c0-1.49,1.23-2.57,2.95-2.57c0.95,0,1.68,0.24,2.02,0.48l-0.28,0.6c-0.27-0.19-0.92-0.48-1.79-0.48
			c-1.64,0-2.2,1.05-2.2,1.85c0,1.13,0.65,1.7,2.11,2.27c1.68,0.68,2.57,1.44,2.57,2.96c0,1.47-1.05,2.79-3.22,2.79
			c-0.88,0-1.9-0.29-2.43-0.68L301.3,51.35z"/>
		<path d="M319.19,52.03c-0.51,0.21-1.57,0.55-2.96,0.55c-1.34,0-2.57-0.34-3.59-1.33c-0.84-0.82-1.4-2.18-1.4-3.82
			c0-2.81,1.85-5.21,5.3-5.21c1.09,0,1.97,0.26,2.37,0.45l-0.23,0.59c-0.53-0.25-1.2-0.44-2.17-0.44c-2.8,0-4.52,1.82-4.52,4.57
			c0,2.87,1.68,4.57,4.36,4.57c1.07,0,1.75-0.16,2.12-0.35v-3.58h-2.35v-0.59h3.07V52.03z"/>
		<path d="M321.3,42.46c0.62-0.14,1.49-0.22,2.2-0.22c1.32,0,2.15,0.29,2.73,0.85c0.44,0.42,0.71,1.1,0.71,1.81
			c0,1.36-0.81,2.25-1.99,2.64v0.03c0.82,0.26,1.33,1.03,1.57,2.16c0.35,1.59,0.55,2.34,0.76,2.74h-0.75
			c-0.16-0.29-0.38-1.19-0.65-2.47c-0.31-1.47-0.94-2.13-2.28-2.19h-1.59v4.66h-0.72V42.46z M322.02,47.24h1.61
			c1.57,0,2.59-0.88,2.59-2.22c0-1.56-1.15-2.19-2.74-2.19c-0.69,0-1.2,0.07-1.46,0.14V47.24z"/>
		<path d="M337.34,47.29c0,3.58-2.19,5.35-4.55,5.35c-2.5,0-4.43-1.97-4.43-5.14c0-3.33,2.02-5.35,4.56-5.35
			C335.48,42.15,337.34,44.15,337.34,47.29z M329.11,47.47c0,2.29,1.33,4.57,3.73,4.57c2.41,0,3.76-2.19,3.76-4.7
			c0-2.14-1.17-4.59-3.73-4.59C330.31,42.75,329.11,45.1,329.11,47.47z"/>
		<path d="M340.93,52.47l-2.68-10.16h0.73l1.48,5.73c0.34,1.31,0.65,2.53,0.84,3.48h0.04c0.17-0.95,0.53-2.16,0.93-3.49l1.67-5.72
			h0.69l1.51,5.68c0.32,1.24,0.66,2.5,0.82,3.54h0.03c0.23-1.1,0.55-2.2,0.93-3.5l1.67-5.72h0.74l-3.04,10.16h-0.69l-1.53-5.85
			c-0.4-1.49-0.64-2.49-0.78-3.44h-0.03c-0.17,0.94-0.45,1.94-0.91,3.44l-1.73,5.85H340.93z"/>
		<path d="M354.14,42.92h-3.31v-0.6h7.34v0.6h-3.31v9.56h-0.72V42.92z"/>
		<path d="M359.93,42.32v4.47h5.6v-4.47h0.72v10.16h-0.72v-5.08h-5.6v5.08h-0.72V42.32H359.93z"/>
	</g>
</g>
</svg>
